  0
SECTION
  2
HEADER
  9
$ACADVER
  1
AC1014
  9
$ACADMAINTVER
 70
     0
  9
$DWGCODEPAGE
  3
DOS850
  9
$INSBASE
 10
0.0
 20
0.0
 30
0.0
  9
$EXTMIN
 10
1.000000E+20
 20
1.000000E+20
 30
1.000000E+20
  9
$EXTMAX
 10
-1.000000E+20
 20
-1.000000E+20
 30
-1.000000E+20
  9
$LIMMIN
 10
0.0
 20
0.0
  9
$LIMMAX
 10
0.0
 20
0.0
  9
$ORTHOMODE
 70
     0
  9
$REGENMODE
 70
     1
  9
$FILLMODE
 70
     1
  9
$QTEXTMODE
 70
     0
  9
$MIRRTEXT
 70
     1
  9
$DRAGMODE
 70
     2
  9
$LTSCALE
 40
1.0
  9
$OSMODE
 70
     0
  9
$ATTMODE
 70
     1
  9
$TEXTSIZE
 40
0.2
  9
$TRACEWID
 40
0.05
  9
$TEXTSTYLE
  7
STANDARD
  9
$CLAYER
  8
0
  9
$CELTYPE
  6
CONTINUOUS
  9
$CECOLOR
 62
   256
  9
$CELTSCALE
 40
1.0
  9
$DELOBJ
 70
     1
  9
$DISPSILH
 70
     0
  9
$DIMSCALE
 40
1.0
  9
$DIMASZ
 40
0.18
  9
$DIMEXO
 40
0.0625
  9
$DIMDLI
 40
0.38
  9
$DIMRND
 40
0.0
  9
$DIMDLE
 40
0.0
  9
$DIMEXE
 40
0.18
  9
$DIMTP
 40
0.0
  9
$DIMTM
 40
0.0
  9
$DIMTXT
 40
0.18
  9
$DIMCEN
 40
0.09
  9
$DIMTSZ
 40
0.0
  9
$DIMTOL
 70
     0
  9
$DIMLIM
 70
     0
  9
$DIMTIH
 70
     1
  9
$DIMTOH
 70
     1
  9
$DIMSE1
 70
     0
  9
$DIMSE2
 70
     0
  9
$DIMTAD
 70
     0
  9
$DIMZIN
 70
     0
  9
$DIMBLK
  1

  9
$DIMASO
 70
     1
  9
$DIMSHO
 70
     1
  9
$DIMPOST
  1

  9
$DIMAPOST
  1

  9
$DIMALT
 70
     0
  9
$DIMALTD
 70
     2
  9
$DIMALTF
 40
25.4
  9
$DIMLFAC
 40
1.0
  9
$DIMTOFL
 70
     0
  9
$DIMTVP
 40
0.0
  9
$DIMTIX
 70
     0
  9
$DIMSOXD
 70
     0
  9
$DIMSAH
 70
     0
  9
$DIMBLK1
  1

  9
$DIMBLK2
  1

  9
$DIMSTYLE
  2
STANDARD
  9
$DIMCLRD
 70
     0
  9
$DIMCLRE
 70
     0
  9
$DIMCLRT
 70
     0
  9
$DIMTFAC
 40
1.0
  9
$DIMGAP
 40
0.09
  9
$DIMJUST
 70
     0
  9
$DIMSD1
 70
     0
  9
$DIMSD2
 70
     0
  9
$DIMTOLJ
 70
     1
  9
$DIMTZIN
 70
     0
  9
$DIMALTZ
 70
     0
  9
$DIMALTTZ
 70
     0
  9
$DIMFIT
 70
     3
  9
$DIMUPT
 70
     0
  9
$DIMUNIT
 70
     2
  9
$DIMDEC
 70
     4
  9
$DIMTDEC
 70
     4
  9
$DIMALTU
 70
     2
  9
$DIMALTTD
 70
     2
  9
$DIMTXSTY
  7
STANDARD
  9
$DIMAUNIT
 70
     0
  9
$LUNITS
 70
     2
  9
$LUPREC
 70
     4
  9
$SKETCHINC
 40
0.1
  9
$FILLETRAD
 40
0.0
  9
$AUNITS
 70
     0
  9
$AUPREC
 70
     0
  9
$MENU
  1
acad
  9
$ELEVATION
 40
0.0
  9
$PELEVATION
 40
0.0
  9
$THICKNESS
 40
0.0
  9
$LIMCHECK
 70
     0
  9
$BLIPMODE
 70
     1
  9
$CHAMFERA
 40
0.0
  9
$CHAMFERB
 40
0.0
  9
$CHAMFERC
 40
0.0
  9
$CHAMFERD
 40
0.0
  9
$SKPOLY
 70
     0
  9
$TDCREATE
 40
0.000000000
  9
$TDUPDATE
 40
0.000000000
  9
$TDINDWG
 40
0.0000000000
  9
$TDUSRTIMER
 40
0.0000000000
  9
$USRTIMER
 70
     1
  9
$ANGBASE
 50
0.0
  9
$ANGDIR
 70
     0
  9
$PDMODE
 70
     0
  9
$PDSIZE
 40
0.0
  9
$PLINEWID
 40
0.0
  9
$COORDS
 70
     0
  9
$SPLFRAME
 70
     0
  9
$SPLINETYPE
 70
     6
  9
$SPLINESEGS
 70
     8
  9
$ATTDIA
 70
     0
  9
$ATTREQ
 70
     1
  9
$HANDLING
 70
     1
  9
$HANDSEED
  5
BD
  9
$SURFTAB1
 70
     6
  9
$SURFTAB2
 70
     6
  9
$SURFTYPE
 70
     6
  9
$SURFU
 70
     6
  9
$SURFV
 70
     6
  9
$UCSNAME
  2

  9
$UCSORG
 10
0.0
 20
0.0
 30
0.0
  9
$UCSXDIR
 10
1.0
 20
0.0
 30
0.0
  9
$UCSYDIR
 10
0.0
 20
1.0
 30
0.0
  9
$PUCSNAME
  2

  9
$PUCSORG
 10
0.0
 20
0.0
 30
0.0
  9
$PUCSXDIR
 10
1.0
 20
0.0
 30
0.0
  9
$PUCSYDIR
 10
0.0
 20
1.0
 30
0.0
  9
$USERI1
 70
     0
  9
$USERI2
 70
     0
  9
$USERI3
 70
     0
  9
$USERI4
 70
     0
  9
$USERI5
 70
     0
  9
$USERR1
 40
0.0
  9
$USERR2
 40
0.0
  9
$USERR3
 40
0.0
  9
$USERR4
 40
0.0
  9
$USERR5
 40
0.0
  9
$WORLDVIEW
 70
     1
  9
$SHADEDGE
 70
     3
  9
$SHADEDIF
 70
    70
  9
$TILEMODE
 70
     1
  9
$MAXACTVP
 70
    16
  9
$PINSBASE
 10
0.0
 20
0.0
 30
0.0
  9
$PLIMCHECK
 70
     0
  9
$PEXTMIN
 10
1.000000E+20
 20
1.000000E+20
 30
1.000000E+20
  9
$PEXTMAX
 10
-1.000000E+20
 20
-1.000000E+20
 30
-1.000000E+20
  9
$PLIMMIN
 10
0.0
 20
0.0
  9
$PLIMMAX
 10
12.0
 20
9.0
  9
$UNITMODE
 70
     0
  9
$VISRETAIN
 70
     0
  9
$PLINEGEN
 70
     1
  9
$PSLTSCALE
 70
     0
  9
$TREEDEPTH
 70
  3020
  9
$PICKSTYLE
 70
     1
  9
$CMLSTYLE
  2
STANDARD
  9
$CMLJUST
 70
     0
  9
$CMLSCALE
 40
1.0
  9
$PROXYGRAPHICS
 70
     0
  9
$MEASUREMENT
 70
     0
  0
ENDSEC
  0
SECTION
  2
CLASSES
  0
CLASS
  1
LWPOLYLINE
  2
AcDbPolyline
  3
"AutoCAD"
 90
        0
280
     0
281
     1
  0
CLASS
  1
IMAGE
  2
AcDbRasterImage
  3
ISM
 90
      127
280
     0
281
     1
  0
CLASS
  1
OLE2FRAME
  2
AcDbOle2Frame
  3
""
 90
        0
280
     0
281
     1
  0
CLASS
  1
HATCH
  2
AcDbHatch
  3
"ACAD_SEDONA"
 90
        0
280
     0
281
     1
  0
CLASS
  1
DICTIONARYVAR
  2
AcDbDictionaryVar
  3
"AutoCAD"
 90
        0
280
     0
281
     0
  0
CLASS
  1
RASTERVARIABLES
  2
AcDbRasterVariables
  3
ISM
 90
        0
280
     0
281
     0
  0
CLASS
  1
IMAGEDEF
  2
AcDbRasterImageDef
  3
ISM
 90
        0
280
     0
281
     0
  0
CLASS
  1
IMAGEDEF_REACTOR
  2
AcDbRasterImageDefReactor
  3
ISM
 90
        1
280
     0
281
     0
  0
CLASS
  1
IDBUFFER
  2
AcDbIdBuffer
  3
"Acad"
 90
        0
280
     0
281
     0
  0
CLASS
  1
SPATIAL_FILTER
  2
AcDbSpatialFilter
  3
"Acad"
 90
        0
280
     0
281
     0
  0
CLASS
  1
XRECORD
  2
AcDbXrecord
  3
"<Built In>"
 90
        0
280
     0
281
     0
  0
CLASS
  1
SORTENTSTABLE
  2
AcDbSortentsTable
  3
"AutoCAD"
 90
        0
280
     0
281
     0
  0
CLASS
  1
LAYER_INDEX
  2
AcDbLayerIndex
  3
"Acad"
 90
        0
280
     0
281
     0
  0
CLASS
  1
SPATIAL_INDEX
  2
AcDbSpatialIndex
  3
"Acad"
 90
        0
280
     0
281
     0
  0
CLASS
  1
OBJECT_PTR
  2
CAseDLPNTableRecord
  3
"ASE-LPNTableRecord"
 90
        1
280
     0
281
     0
  0
CLASS
  1
LAYOUT
  2
AcDbLayout
  3
"AutoCAD 2000"
 90
        1
280
     0
281
     0
  0
CLASS
  1
PLOTSETTINGS
  2
AcDbPlotSettings
  3
"AutoCAD 2000"
 90
        1
280
     0
281
     0
  0
CLASS
  1
ACDBDICTIONARYWDFLT
  2
AcDbDictionaryWithDefault
  3
"AutoCAD 2000"
 90
        1
280
     0
281
     0
  0
CLASS
  1
ACDBPLACEHOLDER
  2
AcDbPlaceHolder
  3
"AutoCAD 2000"
 90
        1
280
     0
281
     0
  0
CLASS
  1
VBA_PROJECT
  2
AcDbVbaProject
  3
"acadvba"
 90
        1
280
     0
281
     0
  0
CLASS
  1
WIPEOUT
  2
AcDbWipeout
  3
WipeOut|AutoCAD Express Tool|expresstools@autodesk.com
 90
      127
280
     0
281
     1
  0
CLASS
  1
WIPEOUTVARIABLES
  2
AcDbWipeoutVariables
  3
WipeOut|AutoCAD Express Tool|expresstools@autodesk.com
 90
        0
280
     0
281
     0
  0
CLASS
  1
RTEXT
  2
RText
  3
RText|AutoCAD Express Tool|expresstools@autodesk.com
 90
        0
280
     0
281
     1
  0
CLASS
  1
ARCALIGNEDTEXT
  2
AcDbArcAlignedText
  3
ATEXT|AutoCAD Express Tool|expresstools@autodesk.com
 90
        0
280
     0
281
     1
  0
ENDSEC
  0
SECTION
  2
TABLES
  0
TABLE
  2
VPORT
  5
7
100
AcDbSymbolTable
 70
     1
  0
VPORT
  5
15
100
AcDbSymbolTableRecord
100
AcDbViewportTableRecord
  2
*ACTIVE
 70
     0
 10
0.0
 20
0.0
 11
1.0
 21
1.0
 12
6.591288
 22
4.579184
 13
0.0
 23
0.0
 14
1.0
 24
1.0
 15
0.0
 25
0.0
 16
0.0
 26
0.0
 36
1.0
 17
0.0
 27
0.0
 37
0.0
 40
9.158369
 41
0.688564
 42
50.0
 43
0.0
 44
0.0
 50
0.0
 51
0.0
 71
     0
 72
   100
 73
     1
 74
     1
 75
     0
 76
     0
 77
     0
 78
     0
  0
ENDTAB
  0
TABLE
  2
LTYPE
  5
4
100
AcDbSymbolTable
 70
     3
  0
LTYPE
  5
11
100
AcDbSymbolTableRecord
100
AcDbLinetypeTableRecord
  2
BYBLOCK
 70
    64
  3

 72
    65
 73
     0
 40
0.0
  0
LTYPE
  5
12
100
AcDbSymbolTableRecord
100
AcDbLinetypeTableRecord
  2
BYLAYER
 70
    64
  3

 72
    65
 73
     0
 40
0.0
  0
LTYPE
  5
13
100
AcDbSymbolTableRecord
100
AcDbLinetypeTableRecord
  2
CONTINUOUS
 70
    64
  3
Solid line
 72
    65
 73
     0
 40
0.0
  0
ENDTAB
  0
TABLE
  2
LAYER
  5
2
100
AcDbSymbolTable
 70
     1
  0
LAYER
  5
14
100
AcDbSymbolTableRecord
100
AcDbLayerTableRecord
  2
0
 70
     0
 62
     7
  6
CONTINUOUS
  0
ENDTAB
  0
TABLE
  2
STYLE
  5
3
100
AcDbSymbolTable
 70
     1
  0
STYLE
  5
17
100
AcDbSymbolTableRecord
100
AcDbTextStyleTableRecord
  2
STANDARD
 70
     0
 40
0.0
 41
1.0
 50
0.0
 71
     0
 42
0.0
  3
txt
  4

  0
ENDTAB
  0
TABLE
  2
VIEW
  5
5
100
AcDbSymbolTable
 70
     0
  0
ENDTAB
  0
TABLE
  2
UCS
  5
6
100
AcDbSymbolTable
 70
     0
  0
ENDTAB
  0
TABLE
  2
APPID
  5
8
100
AcDbSymbolTable
 70
     1
  0
APPID
  5
16
100
AcDbSymbolTableRecord
100
AcDbRegAppTableRecord
  2
ACAD
 70
     0
  0
ENDTAB
  0
TABLE
  2
DIMSTYLE
  5
9
100
AcDbSymbolTable
 70
     1
  0
DIMSTYLE
105
18
100
AcDbSymbolTableRecord
100
AcDbDimStyleTableRecord
  2
STANDARD
 70
     0
  3

  4

  5

  6

  7

 40
1.0
 41
0.18
 42
0.0625
 43
0.38
 44
0.18
 45
0.0
 46
0.0
 47
0.0
 48
0.0
 71
     0
 72
     0
 73
     1
 74
     1
 75
     0
 76
     0
 77
     0
 78
     0
140
0.18
141
0.09
142
0.0
143
25.4
144
1.0
145
0.0
146
1.0
147
0.09
170
     0
171
     2
172
     0
173
     0
174
     0
175
     0
176
     0
177
     0
178
     0
270
     2
271
     4
272
     4
273
     2
274
     2
275
     0
280
     0
281
     0
282
     0
283
     1
284
     0
285
     0
286
     0
287
     0
288
     0
340
17
  0
ENDTAB
  0
TABLE
  2
BLOCK_RECORD
  5
1
100
AcDbSymbolTable
 70
     0
  0
BLOCK_RECORD
  5
A
100
AcDbSymbolTableRecord
100
AcDbBlockTableRecord
  2
*MODEL_SPACE
  0
BLOCK_RECORD
  5
B
100
AcDbSymbolTableRecord
100
AcDbBlockTableRecord
  2
*PAPER_SPACE
  0
ENDTAB
  0
ENDSEC
  0
SECTION
  2
BLOCKS
  0
BLOCK
  5
D
100
AcDbEntity
  8
0
100
AcDbBlockBegin
  2
*MODEL_SPACE
 70
     0
 10
0.0
 20
0.0
 30
0.0
  3
*MODEL_SPACE
  1

  0
ENDBLK
  5
E
100
AcDbEntity
  8
0
100
AcDbBlockEnd
  0
BLOCK
  5
F
100
AcDbEntity
 67
     1
  8
0
100
AcDbBlockBegin
  2
*PAPER_SPACE
 70
     0
 10
0.0
 20
0.0
 30
0.0
  3
*PAPER_SPACE
  1

  0
ENDBLK
  5
10
100
AcDbEntity
 67
     1
  8
0
100
AcDbBlockEnd
  0
ENDSEC
  0
SECTION
  2
ENTITIES
  0
LINE
  5
24
100
AcDbEntity
  8
0
 62
     0
100
AcDbLine
 10
-0.15722
 20
0.187173
 30
0.0
 11
-0.15722
 21
0.218067
 31
0.0
  0
LINE
  5
25
100
AcDbEntity
  8
0
 62
     0
100
AcDbLine
 10
-0.15722
 20
0.218067
 30
0.0
 11
-0.134083
 21
0.218067
 31
0.0
  0
LINE
  5
26
100
AcDbEntity
  8
0
 62
     0
100
AcDbLine
 10
-0.134083
 20
0.218067
 30
0.0
 11
-0.134083
 21
0.213917
 31
0.0
  0
LINE
  5
27
100
AcDbEntity
  8
0
 62
     0
100
AcDbLine
 10
-0.134083
 20
0.213917
 30
0.0
 11
-0.153193
 21
0.213917
 31
0.0
  0
LINE
  5
28
100
AcDbEntity
  8
0
 62
     0
100
AcDbLine
 10
-0.153193
 20
0.213917
 30
0.0
 11
-0.153193
 21
0.205319
 31
0.0
  0
LINE
  5
29
100
AcDbEntity
  8
0
 62
     0
100
AcDbLine
 10
-0.153193
 20
0.205319
 30
0.0
 11
-0.141516
 21
0.205319
 31
0.0
  0
LINE
  5
2A
100
AcDbEntity
  8
0
 62
     0
100
AcDbLine
 10
-0.141516
 20
0.205319
 30
0.0
 11
-0.141516
 21
0.201228
 31
0.0
  0
LINE
  5
2B
100
AcDbEntity
  8
0
 62
     0
100
AcDbLine
 10
-0.141516
 20
0.201228
 30
0.0
 11
-0.153193
 21
0.201228
 31
0.0
  0
LINE
  5
2C
100
AcDbEntity
  8
0
 62
     0
100
AcDbLine
 10
-0.153193
 20
0.201228
 30
0.0
 11
-0.153193
 21
0.191413
 31
0.0
  0
LINE
  5
2D
100
AcDbEntity
  8
0
 62
     0
100
AcDbLine
 10
-0.153193
 20
0.191413
 30
0.0
 11
-0.133902
 21
0.191413
 31
0.0
  0
LINE
  5
2E
100
AcDbEntity
  8
0
 62
     0
100
AcDbLine
 10
-0.133902
 20
0.191413
 30
0.0
 11
-0.133902
 21
0.187173
 31
0.0
  0
LINE
  5
2F
100
AcDbEntity
  8
0
 62
     0
100
AcDbLine
 10
-0.133902
 20
0.187173
 30
0.0
 11
-0.15722
 21
0.187173
 31
0.0
  0
LINE
  5
30
100
AcDbEntity
  8
0
 62
     0
100
AcDbLine
 10
-0.115047
 20
0.213858
 30
0.0
 11
-0.115047
 21
0.187173
 31
0.0
  0
LINE
  5
31
100
AcDbEntity
  8
0
 62
     0
100
AcDbLine
 10
-0.115047
 20
0.187173
 30
0.0
 11
-0.119047
 21
0.187173
 31
0.0
  0
LINE
  5
32
100
AcDbEntity
  8
0
 62
     0
100
AcDbLine
 10
-0.119047
 20
0.187173
 30
0.0
 11
-0.119047
 21
0.213858
 31
0.0
  0
LINE
  5
33
100
AcDbEntity
  8
0
 62
     0
100
AcDbLine
 10
-0.119047
 20
0.213858
 30
0.0
 11
-0.130024
 21
0.213858
 31
0.0
  0
LINE
  5
34
100
AcDbEntity
  8
0
 62
     0
100
AcDbLine
 10
-0.130024
 20
0.213858
 30
0.0
 11
-0.130024
 21
0.218067
 31
0.0
  0
LINE
  5
35
100
AcDbEntity
  8
0
 62
     0
100
AcDbLine
 10
-0.130024
 20
0.218067
 30
0.0
 11
-0.104024
 21
0.218067
 31
0.0
  0
LINE
  5
36
100
AcDbEntity
  8
0
 62
     0
100
AcDbLine
 10
-0.104024
 20
0.218067
 30
0.0
 11
-0.104024
 21
0.213858
 31
0.0
  0
LINE
  5
37
100
AcDbEntity
  8
0
 62
     0
100
AcDbLine
 10
-0.104024
 20
0.213858
 30
0.0
 11
-0.115047
 21
0.213858
 31
0.0
  0
LINE
  5
38
100
AcDbEntity
  8
0
 62
     0
100
AcDbLine
 10
-0.097272
 20
0.187173
 30
0.0
 11
-0.097272
 21
0.218067
 31
0.0
  0
LINE
  5
39
100
AcDbEntity
  8
0
 62
     0
100
AcDbLine
 10
-0.097272
 20
0.218067
 30
0.0
 11
-0.093248
 21
0.218067
 31
0.0
  0
LINE
  5
3A
100
AcDbEntity
  8
0
 62
     0
100
AcDbLine
 10
-0.093248
 20
0.218067
 30
0.0
 11
-0.093248
 21
0.205449
 31
0.0
  0
LINE
  5
3B
100
AcDbEntity
  8
0
 62
     0
100
AcDbLine
 10
-0.093248
 20
0.205449
 30
0.0
 11
-0.074319
 21
0.205449
 31
0.0
  0
LINE
  5
3C
100
AcDbEntity
  8
0
 62
     0
100
AcDbLine
 10
-0.074319
 20
0.205449
 30
0.0
 11
-0.074319
 21
0.218067
 31
0.0
  0
LINE
  5
3D
100
AcDbEntity
  8
0
 62
     0
100
AcDbLine
 10
-0.074319
 20
0.218067
 30
0.0
 11
-0.070319
 21
0.218067
 31
0.0
  0
LINE
  5
3E
100
AcDbEntity
  8
0
 62
     0
100
AcDbLine
 10
-0.070319
 20
0.218067
 30
0.0
 11
-0.070319
 21
0.187173
 31
0.0
  0
LINE
  5
3F
100
AcDbEntity
  8
0
 62
     0
100
AcDbLine
 10
-0.070319
 20
0.187173
 30
0.0
 11
-0.074319
 21
0.187173
 31
0.0
  0
LINE
  5
40
100
AcDbEntity
  8
0
 62
     0
100
AcDbLine
 10
-0.074319
 20
0.187173
 30
0.0
 11
-0.074319
 21
0.201177
 31
0.0
  0
LINE
  5
41
100
AcDbEntity
  8
0
 62
     0
100
AcDbLine
 10
-0.074319
 20
0.201177
 30
0.0
 11
-0.093248
 21
0.201177
 31
0.0
  0
LINE
  5
42
100
AcDbEntity
  8
0
 62
     0
100
AcDbLine
 10
-0.093248
 20
0.201177
 30
0.0
 11
-0.093248
 21
0.187173
 31
0.0
  0
LINE
  5
43
100
AcDbEntity
  8
0
 62
     0
100
AcDbLine
 10
-0.093248
 20
0.187173
 30
0.0
 11
-0.097272
 21
0.187173
 31
0.0
  0
LINE
  5
44
100
AcDbEntity
  8
0
 62
     0
100
AcDbLine
 10
-0.057843
 20
0.187173
 30
0.0
 11
-0.057843
 21
0.218067
 31
0.0
  0
LINE
  5
45
100
AcDbEntity
  8
0
 62
     0
100
AcDbLine
 10
-0.057843
 20
0.218067
 30
0.0
 11
-0.034709
 21
0.218067
 31
0.0
  0
LINE
  5
46
100
AcDbEntity
  8
0
 62
     0
100
AcDbLine
 10
-0.034709
 20
0.218067
 30
0.0
 11
-0.034709
 21
0.213917
 31
0.0
  0
LINE
  5
47
100
AcDbEntity
  8
0
 62
     0
100
AcDbLine
 10
-0.034709
 20
0.213917
 30
0.0
 11
-0.053819
 21
0.213917
 31
0.0
  0
LINE
  5
48
100
AcDbEntity
  8
0
 62
     0
100
AcDbLine
 10
-0.053819
 20
0.213917
 30
0.0
 11
-0.053819
 21
0.205319
 31
0.0
  0
LINE
  5
49
100
AcDbEntity
  8
0
 62
     0
100
AcDbLine
 10
-0.053819
 20
0.205319
 30
0.0
 11
-0.042138
 21
0.205319
 31
0.0
  0
LINE
  5
4A
100
AcDbEntity
  8
0
 62
     0
100
AcDbLine
 10
-0.042138
 20
0.205319
 30
0.0
 11
-0.042138
 21
0.201228
 31
0.0
  0
LINE
  5
4B
100
AcDbEntity
  8
0
 62
     0
100
AcDbLine
 10
-0.042138
 20
0.201228
 30
0.0
 11
-0.053819
 21
0.201228
 31
0.0
  0
LINE
  5
4C
100
AcDbEntity
  8
0
 62
     0
100
AcDbLine
 10
-0.053819
 20
0.201228
 30
0.0
 11
-0.053819
 21
0.191413
 31
0.0
  0
LINE
  5
4D
100
AcDbEntity
  8
0
 62
     0
100
AcDbLine
 10
-0.053819
 20
0.191413
 30
0.0
 11
-0.034528
 21
0.191413
 31
0.0
  0
LINE
  5
4E
100
AcDbEntity
  8
0
 62
     0
100
AcDbLine
 10
-0.034528
 20
0.191413
 30
0.0
 11
-0.034528
 21
0.187173
 31
0.0
  0
LINE
  5
4F
100
AcDbEntity
  8
0
 62
     0
100
AcDbLine
 10
-0.034528
 20
0.187173
 30
0.0
 11
-0.057843
 21
0.187173
 31
0.0
  0
LINE
  5
50
100
AcDbEntity
  8
0
 62
     0
100
AcDbLine
 10
-0.007193
 20
0.214067
 30
0.0
 11
-0.020961
 21
0.214067
 31
0.0
  0
LINE
  5
51
100
AcDbEntity
  8
0
 62
     0
100
AcDbLine
 10
-0.020961
 20
0.214067
 30
0.0
 11
-0.020961
 21
0.203213
 31
0.0
  0
LINE
  5
52
100
AcDbEntity
  8
0
 62
     0
100
AcDbLine
 10
-0.020961
 20
0.203213
 30
0.0
 11
-0.007193
 21
0.203213
 31
0.0
  0
SPLINE
  5
53
100
AcDbEntity
  8
0
 62
     0
100
AcDbSpline
210
0.0
220
0.0
230
1.0
 70
     0
 71
     3
 72
     0
 73
     0
 74
    32
 44
0.0000000001
 11
-0.0071929133858268
 21
0.2032125984251968
 31
0.0
 11
-0.007003937007874
 21
0.2032125984251968
 31
0.0
 11
-0.0068267716535433
 21
0.2032165354330709
 31
0.0
 11
-0.0066574803149606
 21
0.2032283464566929
 31
0.0
 11
-0.006496062992126
 21
0.203251968503937
 31
0.0
 11
-0.0063385826771654
 21
0.2032716535433071
 31
0.0
 11
-0.0061929133858268
 21
0.2032992125984252
 31
0.0
 11
-0.0060511811023622
 21
0.2033346456692913
 31
0.0
 11
-0.0059251968503937
 21
0.2033818897637795
 31
0.0
 11
-0.0057952755905512
 21
0.2034251968503937
 31
0.0
 11
-0.0056811023622047
 21
0.2034763779527559
 31
0.0
 11
-0.0055708661417323
 21
0.2035354330708661
 31
0.0
 11
-0.0054724409448819
 21
0.2035984251968504
 31
0.0
 11
-0.0053740157480315
 21
0.2036653543307087
 31
0.0
 11
-0.0052913385826772
 21
0.203740157480315
 31
0.0
 11
-0.0052086614173228
 21
0.2038228346456693
 31
0.0
 11
-0.0051417322834646
 21
0.2039094488188976
 31
0.0
 11
-0.0050708661417323
 21
0.204
 31
0.0
 11
-0.005007874015748
 21
0.2040984251968504
 31
0.0
 11
-0.0049488188976378
 21
0.2042047244094488
 31
0.0
 11
-0.0048976377952756
 21
0.2043228346456693
 31
0.0
 11
-0.0048464566929134
 21
0.2044448818897638
 31
0.0
 11
-0.0048031496062992
 21
0.2045787401574803
 31
0.0
 11
-0.0047637795275591
 21
0.2047204724409449
 31
0.0
 11
-0.0047322834645669
 21
0.2048740157480315
 31
0.0
 11
-0.0046968503937008
 21
0.2050275590551181
 31
0.0
 11
-0.0046692913385827
 21
0.2051929133858268
 31
0.0
 11
-0.0046456692913386
 21
0.2053661417322835
 31
0.0
 11
-0.0046299212598425
 21
0.2055511811023622
 31
0.0
 11
-0.0046141732283465
 21
0.205740157480315
 31
0.0
 11
-0.0046062992125984
 21
0.2059448818897638
 31
0.0
 11
-0.0046023622047244
 21
0.2061535433070866
 31
0.0
  0
LINE
  5
54
100
AcDbEntity
  8
0
 62
     0
100
AcDbLine
 10
-0.004602
 20
0.206154
 30
0.0
 11
-0.004602
 21
0.206374
 31
0.0
  0
LINE
  5
55
100
AcDbEntity
  8
0
 62
     0
100
AcDbLine
 10
-0.004602
 20
0.206374
 30
0.0
 11
-0.004602
 21
0.210874
 31
0.0
  0
SPLINE
  5
56
100
AcDbEntity
  8
0
 62
     0
100
AcDbSpline
210
0.0
220
0.0
230
1.0
 70
     0
 71
     3
 72
     0
 73
     0
 74
    32
 44
0.0000000001
 11
-0.0046023622047244
 21
0.2108740157480315
 31
0.0
 11
-0.0046023622047244
 21
0.2110826771653543
 31
0.0
 11
-0.0046062992125984
 21
0.2112913385826772
 31
0.0
 11
-0.0046141732283465
 21
0.2114881889763779
 31
0.0
 11
-0.0046299212598425
 21
0.2116850393700787
 31
0.0
 11
-0.0046456692913386
 21
0.2118661417322835
 31
0.0
 11
-0.0046692913385827
 21
0.2120433070866142
 31
0.0
 11
-0.0047007874015748
 21
0.2122086614173228
 31
0.0
 11
-0.0047362204724409
 21
0.2123700787401575
 31
0.0
 11
-0.0047716535433071
 21
0.2125157480314961
 31
0.0
 11
-0.0048110236220472
 21
0.2126574803149606
 31
0.0
 11
-0.0048582677165354
 21
0.2127913385826772
 31
0.0
 11
-0.0049094488188976
 21
0.2129212598425197
 31
0.0
 11
-0.0049606299212598
 21
0.2130314960629921
 31
0.0
 11
-0.0050196850393701
 21
0.2131456692913386
 31
0.0
 11
-0.0050866141732283
 21
0.213244094488189
 31
0.0
 11
-0.0051574803149606
 21
0.2133464566929134
 31
0.0
 11
-0.0052244094488189
 21
0.2134291338582677
 31
0.0
 11
-0.0053070866141732
 21
0.213511811023622
 31
0.0
 11
-0.0053897637795276
 21
0.2135826771653543
 31
0.0
 11
-0.005488188976378
 21
0.2136574803149606
 31
0.0
 11
-0.0055905511811024
 21
0.2137165354330709
 31
0.0
 11
-0.0057007874015748
 21
0.2137755905511811
 31
0.0
 11
-0.0058149606299213
 21
0.2138267716535433
 31
0.0
 11
-0.0059409448818898
 21
0.2138818897637795
 31
0.0
 11
-0.0060669291338583
 21
0.2139173228346457
 31
0.0
 11
-0.0062086614173228
 21
0.2139606299212598
 31
0.0
 11
-0.0063503937007874
 21
0.213988188976378
 31
0.0
 11
-0.006507874015748
 21
0.2140196850393701
 31
0.0
 11
-0.0066653543307087
 21
0.2140354330708661
 31
0.0
 11
-0.0068346456692913
 21
0.2140551181102362
 31
0.0
 11
-0.007007874015748
 21
0.2140590551181102
 31
0.0
  0
LINE
  5
57
100
AcDbEntity
  8
0
 62
     0
100
AcDbLine
 10
-0.024984
 20
0.187173
 30
0.0
 11
-0.024984
 21
0.218067
 31
0.0
  0
LINE
  5
58
100
AcDbEntity
  8
0
 62
     0
100
AcDbLine
 10
-0.024984
 20
0.218067
 30
0.0
 11
-0.005622
 21
0.218067
 31
0.0
  0
SPLINE
  5
59
100
AcDbEntity
  8
0
 62
     0
100
AcDbSpline
210
0.0
220
0.0
230
1.0
 70
     0
 71
     3
 72
     0
 73
     0
 74
    32
 44
0.0000000001
 11
-0.0056220472440945
 21
0.2180669291338583
 31
0.0
 11
-0.0052874015748031
 21
0.2180590551181103
 31
0.0
 11
-0.0049645669291339
 21
0.2180433070866142
 31
0.0
 11
-0.0046535433070866
 21
0.2180118110236221
 31
0.0
 11
-0.0043622047244094
 21
0.2179763779527559
 31
0.0
 11
-0.0040748031496063
 21
0.2179212598425197
 31
0.0
 11
-0.0038070866141732
 21
0.2178661417322835
 31
0.0
 11
-0.0035433070866142
 21
0.2177913385826772
 31
0.0
 11
-0.0032992125984252
 21
0.2177125984251969
 31
0.0
 11
-0.0030551181102362
 21
0.2176141732283465
 31
0.0
 11
-0.0028307086614173
 21
0.2175118110236221
 31
0.0
 11
-0.0026141732283465
 21
0.2173897637795276
 31
0.0
 11
-0.0024173228346457
 21
0.2172677165354331
 31
0.0
 11
-0.0022244094488189
 21
0.2171259842519685
 31
0.0
 11
-0.0020511811023622
 21
0.2169803149606299
 31
0.0
 11
-0.0018818897637795
 21
0.2168188976377953
 31
0.0
 11
-0.0017322834645669
 21
0.2166496062992126
 31
0.0
 11
-0.0015826771653543
 21
0.2164566929133858
 31
0.0
 11
-0.0014448818897638
 21
0.2162598425196851
 31
0.0
 11
-0.0013188976377953
 21
0.2160433070866142
 31
0.0
 11
-0.0012047244094488
 21
0.2158228346456693
 31
0.0
 11
-0.0010944881889764
 21
0.2155826771653543
 31
0.0
 11
-0.000996062992126
 21
0.2153307086614173
 31
0.0
 11
-0.0009055118110236
 21
0.2150669291338583
 31
0.0
 11
-0.0008307086614173
 21
0.2147913385826772
 31
0.0
 11
-0.000755905511811
 21
0.214492125984252
 31
0.0
 11
-0.0006968503937008
 21
0.2141889763779528
 31
0.0
 11
-0.0006456692913386
 21
0.2138661417322835
 31
0.0
 11
-0.0006062992125984
 21
0.2135393700787402
 31
0.0
 11
-0.0005708661417323
 21
0.2131929133858268
 31
0.0
 11
-0.0005511811023622
 21
0.2128346456692913
 31
0.0
 11
-0.0005354330708661
 21
0.2124645669291339
 31
0.0
  0
LINE
  5
5A
100
AcDbEntity
  8
0
 62
     0
100
AcDbLine
 10
-0.000535
 20
0.212465
 30
0.0
 11
-0.000535
 21
0.212083
 31
0.0
  0
LINE
  5
5B
100
AcDbEntity
  8
0
 62
     0
100
AcDbLine
 10
-0.000535
 20
0.212083
 30
0.0
 11
-0.000535
 21
0.205169
 31
0.0
  0
SPLINE
  5
5C
100
AcDbEntity
  8
0
 62
     0
100
AcDbSpline
210
0.0
220
0.0
230
1.0
 70
     0
 71
     3
 72
     0
 73
     0
 74
    32
 44
0.0000000001
 11
-0.0005354330708661
 21
0.2051692913385827
 31
0.0
 11
-0.0005354330708661
 21
0.2047834645669291
 31
0.0
 11
-0.0005511811023622
 21
0.2044133858267717
 31
0.0
 11
-0.0005708661417323
 21
0.2040511811023622
 31
0.0
 11
-0.0006062992125984
 21
0.2037125984251968
 31
0.0
 11
-0.0006456692913386
 21
0.2033779527559055
 31
0.0
 11
-0.0006968503937008
 21
0.2030629921259843
 31
0.0
 11
-0.000755905511811
 21
0.202759842519685
 31
0.0
 11
-0.0008307086614173
 21
0.2024724409448819
 31
0.0
 11
-0.0009055118110236
 21
0.2021929133858268
 31
0.0
 11
-0.000996062992126
 21
0.2019291338582677
 31
0.0
 11
-0.0010944881889764
 21
0.2016771653543307
 31
0.0
 11
-0.0012047244094488
 21
0.2014448818897638
 31
0.0
 11
-0.0013188976377953
 21
0.2012165354330709
 31
0.0
 11
-0.0014448818897638
 21
0.201007874015748
 31
0.0
 11
-0.0015826771653543
 21
0.2008110236220473
 31
0.0
 11
-0.0017322834645669
 21
0.2006299212598425
 31
0.0
 11
-0.0018818897637795
 21
0.2004488188976378
 31
0.0
 11
-0.0020511811023622
 21
0.2002874015748032
 31
0.0
 11
-0.0022244094488189
 21
0.2001377952755906
 31
0.0
 11
-0.0024173228346457
 21
0.200003937007874
 31
0.0
 11
-0.0026141732283465
 21
0.1998700787401575
 31
0.0
 11
-0.0028307086614173
 21
0.199755905511811
 31
0.0
 11
-0.0030551181102362
 21
0.1996535433070866
 31
0.0
 11
-0.0032992125984252
 21
0.1995629921259843
 31
0.0
 11
-0.0035433070866142
 21
0.1994763779527559
 31
0.0
 11
-0.0038070866141732
 21
0.1994015748031496
 31
0.0
 11
-0.0040748031496063
 21
0.1993385826771654
 31
0.0
 11
-0.0043622047244094
 21
0.1992952755905512
 31
0.0
 11
-0.0046535433070866
 21
0.199255905511811
 31
0.0
 11
-0.0049645669291339
 21
0.1992283464566929
 31
0.0
 11
-0.0052874015748031
 21
0.1992125984251968
 31
0.0
  0
LINE
  5
5D
100
AcDbEntity
  8
0
 62
     0
100
AcDbLine
 10
-0.005287
 20
0.199213
 30
0.0
 11
-0.005622
 21
0.199213
 31
0.0
  0
LINE
  5
5E
100
AcDbEntity
  8
0
 62
     0
100
AcDbLine
 10
-0.005622
 20
0.199213
 30
0.0
 11
-0.00915
 21
0.199213
 31
0.0
  0
LINE
  5
5F
100
AcDbEntity
  8
0
 62
     0
100
AcDbLine
 10
-0.00915
 20
0.199213
 30
0.0
 11
0.001827
 21
0.187173
 31
0.0
  0
LINE
  5
60
100
AcDbEntity
  8
0
 62
     0
100
AcDbLine
 10
0.001827
 20
0.187173
 30
0.0
 11
-0.004126
 21
0.187173
 31
0.0
  0
LINE
  5
61
100
AcDbEntity
  8
0
 62
     0
100
AcDbLine
 10
-0.004126
 20
0.187173
 30
0.0
 11
-0.013894
 21
0.199213
 31
0.0
  0
LINE
  5
62
100
AcDbEntity
  8
0
 62
     0
100
AcDbLine
 10
-0.013894
 20
0.199213
 30
0.0
 11
-0.020961
 21
0.199213
 31
0.0
  0
LINE
  5
63
100
AcDbEntity
  8
0
 62
     0
100
AcDbLine
 10
-0.020961
 20
0.199213
 30
0.0
 11
-0.020961
 21
0.187173
 31
0.0
  0
LINE
  5
64
100
AcDbEntity
  8
0
 62
     0
100
AcDbLine
 10
-0.020961
 20
0.187173
 30
0.0
 11
-0.024984
 21
0.187173
 31
0.0
  0
LINE
  5
65
100
AcDbEntity
  8
0
 62
     0
100
AcDbLine
 10
0.010484
 20
0.187173
 30
0.0
 11
0.010484
 21
0.218067
 31
0.0
  0
LINE
  5
66
100
AcDbEntity
  8
0
 62
     0
100
AcDbLine
 10
0.010484
 20
0.218067
 30
0.0
 11
0.013004
 21
0.218067
 31
0.0
  0
LINE
  5
67
100
AcDbEntity
  8
0
 62
     0
100
AcDbLine
 10
0.013004
 20
0.218067
 30
0.0
 11
0.030976
 21
0.197409
 31
0.0
  0
SPLINE
  5
68
100
AcDbEntity
  8
0
 62
     0
100
AcDbSpline
210
0.0
220
0.0
230
1.0
 70
     0
 71
     3
 72
     0
 73
     0
 74
    64
 44
0.0000000001
 11
0.0309763779527559
 21
0.1974094488188976
 31
0.0
 11
0.0310472440944882
 21
0.1973149606299213
 31
0.0
 11
0.0311299212598425
 21
0.1972244094488189
 31
0.0
 11
0.0312047244094488
 21
0.1971299212598425
 31
0.0
 11
0.0312874015748031
 21
0.1970354330708661
 31
0.0
 11
0.0313622047244094
 21
0.1969291338582677
 31
0.0
 11
0.0314448818897638
 21
0.1968346456692914
 31
0.0
 11
0.0315275590551181
 21
0.1967283464566929
 31
0.0
 11
0.0316102362204724
 21
0.1966299212598425
 31
0.0
 11
0.0316929133858268
 21
0.1965157480314961
 31
0.0
 11
0.0317755905511811
 21
0.1964094488188976
 31
0.0
 11
0.0318582677165354
 21
0.1962913385826772
 31
0.0
 11
0.0319409448818898
 21
0.1961850393700788
 31
0.0
 11
0.0320236220472441
 21
0.1960669291338583
 31
0.0
 11
0.0321141732283465
 21
0.1959488188976378
 31
0.0
 11
0.0321968503937008
 21
0.1958307086614173
 31
0.0
 11
0.0322913385826772
 21
0.1957125984251968
 31
0.0
 11
0.0323740157480315
 21
0.1955826771653543
 31
0.0
 11
0.0324566929133858
 21
0.1954527559055118
 31
0.0
 11
0.0325393700787402
 21
0.1953228346456693
 31
0.0
 11
0.0326299212598425
 21
0.1951929133858268
 31
0.0
 11
0.0327125984251969
 21
0.1950551181102362
 31
0.0
 11
0.0328070866141732
 21
0.1949251968503937
 31
0.0
 11
0.0328897637795276
 21
0.1947913385826772
 31
0.0
 11
0.0329842519685039
 21
0.1946614173228347
 31
0.0
 11
0.0330669291338583
 21
0.1945196850393701
 31
0.0
 11
0.0331614173228346
 21
0.1943779527559055
 31
0.0
 11
0.033248031496063
 21
0.1942362204724409
 31
0.0
 11
0.0333425196850394
 21
0.1940944881889764
 31
0.0
 11
0.0334251968503937
 21
0.1939448818897638
 31
0.0
 11
0.0335196850393701
 21
0.1938031496062992
 31
0.0
 11
0.0336141732283465
 21
0.1936574803149606
 31
0.0
 11
0.0337086614173228
 21
0.1935157480314961
 31
0.0
 11
0.0336850393700787
 21
0.1936929133858268
 31
0.0
 11
0.0336614173228346
 21
0.1938818897637795
 31
0.0
 11
0.0336377952755905
 21
0.1940708661417323
 31
0.0
 11
0.0336181102362205
 21
0.194259842519685
 31
0.0
 11
0.0335944881889764
 21
0.1944488188976378
 31
0.0
 11
0.0335787401574803
 21
0.1946456692913386
 31
0.0
 11
0.0335590551181102
 21
0.1948346456692914
 31
0.0
 11
0.0335472440944882
 21
0.1950354330708662
 31
0.0
 11
0.0335236220472441
 21
0.1952244094488189
 31
0.0
 11
0.033511811023622
 21
0.1954251968503937
 31
0.0
 11
0.033496062992126
 21
0.1956181102362205
 31
0.0
 11
0.0334842519685039
 21
0.1958188976377953
 31
0.0
 11
0.0334724409448819
 21
0.1960196850393701
 31
0.0
 11
0.0334606299212598
 21
0.1962204724409449
 31
0.0
 11
0.0334488188976378
 21
0.1964212598425197
 31
0.0
 11
0.0334370078740157
 21
0.1966299212598425
 31
0.0
 11
0.0334251968503937
 21
0.1968307086614173
 31
0.0
 11
0.0334133858267717
 21
0.1970472440944882
 31
0.0
 11
0.0334015748031496
 21
0.1972716535433071
 31
0.0
 11
0.0333937007874016
 21
0.1975118110236221
 31
0.0
 11
0.0333818897637795
 21
0.197755905511811
 31
0.0
 11
0.0333779527559055
 21
0.1980118110236221
 31
0.0
 11
0.0333661417322835
 21
0.1982795275590551
 31
0.0
 11
0.0333661417322835
 21
0.1985590551181102
 31
0.0
 11
0.0333543307086614
 21
0.1988385826771654
 31
0.0
 11
0.0333543307086614
 21
0.1991338582677165
 31
0.0
 11
0.0333464566929134
 21
0.1994370078740158
 31
0.0
 11
0.0333464566929134
 21
0.199755905511811
 31
0.0
 11
0.0333425196850394
 21
0.2000787401574803
 31
0.0
 11
0.0333425196850394
 21
0.2004133858267717
 31
0.0
 11
0.0333425196850394
 21
0.200759842519685
 31
0.0
  0
LINE
  5
69
100
AcDbEntity
  8
0
 62
     0
100
AcDbLine
 10
0.033343
 20
0.20076
 30
0.0
 11
0.033343
 21
0.201118
 31
0.0
  0
LINE
  5
6A
100
AcDbEntity
  8
0
 62
     0
100
AcDbLine
 10
0.033343
 20
0.201118
 30
0.0
 11
0.033343
 21
0.218067
 31
0.0
  0
LINE
  5
6B
100
AcDbEntity
  8
0
 62
     0
100
AcDbLine
 10
0.033343
 20
0.218067
 30
0.0
 11
0.037028
 21
0.218067
 31
0.0
  0
LINE
  5
6C
100
AcDbEntity
  8
0
 62
     0
100
AcDbLine
 10
0.037028
 20
0.218067
 30
0.0
 11
0.037028
 21
0.187173
 31
0.0
  0
LINE
  5
6D
100
AcDbEntity
  8
0
 62
     0
100
AcDbLine
 10
0.037028
 20
0.187173
 30
0.0
 11
0.03478
 21
0.187173
 31
0.0
  0
LINE
  5
6E
100
AcDbEntity
  8
0
 62
     0
100
AcDbLine
 10
0.03478
 20
0.187173
 30
0.0
 11
0.016323
 21
0.208661
 31
0.0
  0
SPLINE
  5
6F
100
AcDbEntity
  8
0
 62
     0
100
AcDbSpline
210
0.0
220
0.0
230
1.0
 70
     0
 71
     3
 72
     0
 73
     0
 74
    64
 44
0.0000000001
 11
0.0163228346456693
 21
0.2086614173228346
 31
0.0
 11
0.0162992125984252
 21
0.2086732283464567
 31
0.0
 11
0.0162834645669291
 21
0.2086929133858268
 31
0.0
 11
0.016259842519685
 21
0.2087086614173228
 31
0.0
 11
0.016248031496063
 21
0.2087322834645669
 31
0.0
 11
0.0162244094488189
 21
0.208755905511811
 31
0.0
 11
0.0162007874015748
 21
0.2087795275590551
 31
0.0
 11
0.0161771653543307
 21
0.2088031496062992
 31
0.0
 11
0.0161535433070866
 21
0.2088385826771654
 31
0.0
 11
0.0161181102362205
 21
0.2088622047244094
 31
0.0
 11
0.0160944881889764
 21
0.2088976377952756
 31
0.0
 11
0.0160669291338583
 21
0.2089291338582677
 31
0.0
 11
0.0160433070866142
 21
0.2089645669291339
 31
0.0
 11
0.016007874015748
 21
0.209
 31
0.0
 11
0.0159803149606299
 21
0.2090354330708661
 31
0.0
 11
0.0159448818897638
 21
0.2090708661417323
 31
0.0
 11
0.0159212598425197
 21
0.2091181102362205
 31
0.0
 11
0.015748031496063
 21
0.2093070866141732
 31
0.0
 11
0.0155826771653543
 21
0.209507874015748
 31
0.0
 11
0.0154251968503937
 21
0.2096968503937008
 31
0.0
 11
0.0152755905511811
 21
0.2098976377952756
 31
0.0
 11
0.0151299212598425
 21
0.2100866141732284
 31
0.0
 11
0.014988188976378
 21
0.2102795275590551
 31
0.0
 11
0.0148543307086614
 21
0.2104685039370079
 31
0.0
 11
0.0147283464566929
 21
0.2106653543307087
 31
0.0
 11
0.0145984251968504
 21
0.2108464566929134
 31
0.0
 11
0.0144803149606299
 21
0.2110354330708661
 31
0.0
 11
0.0143700787401575
 21
0.2112204724409449
 31
0.0
 11
0.0142637795275591
 21
0.2114094488188976
 31
0.0
 11
0.0141574803149606
 21
0.2115866141732284
 31
0.0
 11
0.0140629921259843
 21
0.2117677165354331
 31
0.0
 11
0.0139763779527559
 21
0.2119448818897638
 31
0.0
 11
0.0138976377952756
 21
0.2121299212598425
 31
0.0
 11
0.0139094488188976
 21
0.2119448818897638
 31
0.0
 11
0.0139251968503937
 21
0.2117677165354331
 31
0.0
 11
0.0139370078740157
 21
0.2115866141732284
 31
0.0
 11
0.0139566929133858
 21
0.2114094488188976
 31
0.0
 11
0.0139685039370079
 21
0.2112204724409449
 31
0.0
 11
0.0139803149606299
 21
0.2110433070866142
 31
0.0
 11
0.013992125984252
 21
0.2108543307086614
 31
0.0
 11
0.014011811023622
 21
0.2106771653543307
 31
0.0
 11
0.0140196850393701
 21
0.2104842519685039
 31
0.0
 11
0.0140314960629921
 21
0.2102952755905512
 31
0.0
 11
0.0140433070866142
 21
0.2101062992125984
 31
0.0
 11
0.0140551181102362
 21
0.2099173228346457
 31
0.0
 11
0.0140629921259843
 21
0.2097165354330709
 31
0.0
 11
0.0140748031496063
 21
0.2095275590551181
 31
0.0
 11
0.0140866141732283
 21
0.2093267716535433
 31
0.0
 11
0.0140984251968504
 21
0.2091377952755905
 31
0.0
 11
0.0140984251968504
 21
0.2089291338582677
 31
0.0
 11
0.0141102362204724
 21
0.2087244094488189
 31
0.0
 11
0.0141141732283465
 21
0.208511811023622
 31
0.0
 11
0.0141259842519685
 21
0.2082992125984252
 31
0.0
 11
0.0141259842519685
 21
0.2080748031496063
 31
0.0
 11
0.0141377952755906
 21
0.2078543307086614
 31
0.0
 11
0.0141377952755906
 21
0.2076220472440945
 31
0.0
 11
0.0141496062992126
 21
0.2073976377952756
 31
0.0
 11
0.0141496062992126
 21
0.2071535433070866
 31
0.0
 11
0.0141496062992126
 21
0.2069133858267717
 31
0.0
 11
0.0141496062992126
 21
0.2066653543307087
 31
0.0
 11
0.0141614173228346
 21
0.2064173228346457
 31
0.0
 11
0.0141614173228346
 21
0.2061574803149606
 31
0.0
 11
0.0141614173228346
 21
0.2059055118110236
 31
0.0
 11
0.0141614173228346
 21
0.2056377952755906
 31
0.0
  0
LINE
  5
70
100
AcDbEntity
  8
0
 62
     0
100
AcDbLine
 10
0.014161
 20
0.205638
 30
0.0
 11
0.014169
 21
0.205378
 31
0.0
  0
LINE
  5
71
100
AcDbEntity
  8
0
 62
     0
100
AcDbLine
 10
0.014169
 20
0.205378
 30
0.0
 11
0.014169
 21
0.187173
 31
0.0
  0
LINE
  5
72
100
AcDbEntity
  8
0
 62
     0
100
AcDbLine
 10
0.014169
 20
0.187173
 30
0.0
 11
0.010484
 21
0.187173
 31
0.0
  0
LINE
  5
73
100
AcDbEntity
  8
0
 62
     0
100
AcDbLine
 10
0.04948
 20
0.187173
 30
0.0
 11
0.04948
 21
0.218067
 31
0.0
  0
LINE
  5
74
100
AcDbEntity
  8
0
 62
     0
100
AcDbLine
 10
0.04948
 20
0.218067
 30
0.0
 11
0.072614
 21
0.218067
 31
0.0
  0
LINE
  5
75
100
AcDbEntity
  8
0
 62
     0
100
AcDbLine
 10
0.072614
 20
0.218067
 30
0.0
 11
0.072614
 21
0.213917
 31
0.0
  0
LINE
  5
76
100
AcDbEntity
  8
0
 62
     0
100
AcDbLine
 10
0.072614
 20
0.213917
 30
0.0
 11
0.053504
 21
0.213917
 31
0.0
  0
LINE
  5
77
100
AcDbEntity
  8
0
 62
     0
100
AcDbLine
 10
0.053504
 20
0.213917
 30
0.0
 11
0.053504
 21
0.205319
 31
0.0
  0
LINE
  5
78
100
AcDbEntity
  8
0
 62
     0
100
AcDbLine
 10
0.053504
 20
0.205319
 30
0.0
 11
0.065185
 21
0.205319
 31
0.0
  0
LINE
  5
79
100
AcDbEntity
  8
0
 62
     0
100
AcDbLine
 10
0.065185
 20
0.205319
 30
0.0
 11
0.065185
 21
0.201228
 31
0.0
  0
LINE
  5
7A
100
AcDbEntity
  8
0
 62
     0
100
AcDbLine
 10
0.065185
 20
0.201228
 30
0.0
 11
0.053504
 21
0.201228
 31
0.0
  0
LINE
  5
7B
100
AcDbEntity
  8
0
 62
     0
100
AcDbLine
 10
0.053504
 20
0.201228
 30
0.0
 11
0.053504
 21
0.191413
 31
0.0
  0
LINE
  5
7C
100
AcDbEntity
  8
0
 62
     0
100
AcDbLine
 10
0.053504
 20
0.191413
 30
0.0
 11
0.072795
 21
0.191413
 31
0.0
  0
LINE
  5
7D
100
AcDbEntity
  8
0
 62
     0
100
AcDbLine
 10
0.072795
 20
0.191413
 30
0.0
 11
0.072795
 21
0.187173
 31
0.0
  0
LINE
  5
7E
100
AcDbEntity
  8
0
 62
     0
100
AcDbLine
 10
0.072795
 20
0.187173
 30
0.0
 11
0.04948
 21
0.187173
 31
0.0
  0
LINE
  5
7F
100
AcDbEntity
  8
0
 62
     0
100
AcDbLine
 10
0.091654
 20
0.213858
 30
0.0
 11
0.091654
 21
0.187173
 31
0.0
  0
LINE
  5
80
100
AcDbEntity
  8
0
 62
     0
100
AcDbLine
 10
0.091654
 20
0.187173
 30
0.0
 11
0.08765
 21
0.187173
 31
0.0
  0
LINE
  5
81
100
AcDbEntity
  8
0
 62
     0
100
AcDbLine
 10
0.08765
 20
0.187173
 30
0.0
 11
0.08765
 21
0.213858
 31
0.0
  0
LINE
  5
82
100
AcDbEntity
  8
0
 62
     0
100
AcDbLine
 10
0.08765
 20
0.213858
 30
0.0
 11
0.076673
 21
0.213858
 31
0.0
  0
LINE
  5
83
100
AcDbEntity
  8
0
 62
     0
100
AcDbLine
 10
0.076673
 20
0.213858
 30
0.0
 11
0.076673
 21
0.218067
 31
0.0
  0
LINE
  5
84
100
AcDbEntity
  8
0
 62
     0
100
AcDbLine
 10
0.076673
 20
0.218067
 30
0.0
 11
0.102677
 21
0.218067
 31
0.0
  0
LINE
  5
85
100
AcDbEntity
  8
0
 62
     0
100
AcDbLine
 10
0.102677
 20
0.218067
 30
0.0
 11
0.102677
 21
0.213858
 31
0.0
  0
LINE
  5
86
100
AcDbEntity
  8
0
 62
     0
100
AcDbLine
 10
0.102677
 20
0.213858
 30
0.0
 11
0.091654
 21
0.213858
 31
0.0
  0
LINE
  5
87
100
AcDbEntity
  8
0
 62
     0
100
AcDbLine
 10
-0.144386
 20
0.363177
 30
0.0
 11
-0.156409
 21
0.363177
 31
0.0
  0
LINE
  5
88
100
AcDbEntity
  8
0
 62
     0
100
AcDbLine
 10
-0.156409
 20
0.363177
 30
0.0
 11
-0.111378
 21
0.460882
 31
0.0
  0
LINE
  5
89
100
AcDbEntity
  8
0
 62
     0
100
AcDbLine
 10
-0.111378
 20
0.460882
 30
0.0
 11
-0.097665
 21
0.460882
 31
0.0
  0
LINE
  5
8A
100
AcDbEntity
  8
0
 62
     0
100
AcDbLine
 10
-0.097665
 20
0.460882
 30
0.0
 11
-0.052772
 21
0.363177
 31
0.0
  0
LINE
  5
8B
100
AcDbEntity
  8
0
 62
     0
100
AcDbLine
 10
-0.052772
 20
0.363177
 30
0.0
 11
-0.064961
 21
0.363177
 31
0.0
  0
LINE
  5
8C
100
AcDbEntity
  8
0
 62
     0
100
AcDbLine
 10
-0.064961
 20
0.363177
 30
0.0
 11
-0.078839
 21
0.393843
 31
0.0
  0
LINE
  5
8D
100
AcDbEntity
  8
0
 62
     0
100
AcDbLine
 10
-0.078839
 20
0.393843
 30
0.0
 11
-0.130508
 21
0.393843
 31
0.0
  0
LINE
  5
8E
100
AcDbEntity
  8
0
 62
     0
100
AcDbLine
 10
-0.130508
 20
0.393843
 30
0.0
 11
-0.144386
 21
0.363177
 31
0.0
  0
LINE
  5
8F
100
AcDbEntity
  8
0
 62
     0
100
AcDbLine
 10
-0.082839
 20
0.402638
 30
0.0
 11
-0.104846
 21
0.451697
 31
0.0
  0
LINE
  5
90
100
AcDbEntity
  8
0
 62
     0
100
AcDbLine
 10
-0.104846
 20
0.451697
 30
0.0
 11
-0.126531
 21
0.402638
 31
0.0
  0
LINE
  5
91
100
AcDbEntity
  8
0
 62
     0
100
AcDbLine
 10
-0.126531
 20
0.402638
 30
0.0
 11
-0.082839
 21
0.402638
 31
0.0
  0
LINE
  5
92
100
AcDbEntity
  8
0
 62
     0
100
AcDbLine
 10
-0.034457
 20
0.451283
 30
0.0
 11
-0.034457
 21
0.363177
 31
0.0
  0
LINE
  5
93
100
AcDbEntity
  8
0
 62
     0
100
AcDbLine
 10
-0.034457
 20
0.363177
 30
0.0
 11
-0.045697
 21
0.363177
 31
0.0
  0
LINE
  5
94
100
AcDbEntity
  8
0
 62
     0
100
AcDbLine
 10
-0.045697
 20
0.363177
 30
0.0
 11
-0.045697
 21
0.460882
 31
0.0
  0
LINE
  5
95
100
AcDbEntity
  8
0
 62
     0
100
AcDbLine
 10
-0.045697
 20
0.460882
 30
0.0
 11
-0.014512
 21
0.460882
 31
0.0
  0
SPLINE
  5
96
100
AcDbEntity
  8
0
 62
     0
100
AcDbSpline
210
0.0
220
0.0
230
1.0
 70
     0
 71
     3
 72
     0
 73
     0
 74
    96
 44
0.0000000001
 11
-0.014511811023622
 21
0.4608818897637795
 31
0.0
 11
-0.0132362204724409
 21
0.4608740157480315
 31
0.0
 11
-0.012
 21
0.4608582677165354
 31
0.0
 11
-0.0107913385826772
 21
0.4608307086614173
 31
0.0
 11
-0.0096220472440945
 21
0.4607992125984252
 31
0.0
 11
-0.0084763779527559
 21
0.460748031496063
 31
0.0
 11
-0.0073661417322835
 21
0.4606929133858268
 31
0.0
 11
-0.0062874015748031
 21
0.4606259842519685
 31
0.0
 11
-0.005240157480315
 21
0.4605511811023622
 31
0.0
 11
-0.0042204724409449
 21
0.4604606299212599
 31
0.0
 11
-0.0032322834645669
 21
0.4603622047244095
 31
0.0
 11
-0.0022755905511811
 21
0.460251968503937
 31
0.0
 11
-0.0013543307086614
 21
0.4601417322834646
 31
0.0
 11
-0.0004566929133858
 21
0.460011811023622
 31
0.0
 11
0.0004015748031496
 21
0.4598779527559055
 31
0.0
 11
0.0012283464566929
 21
0.4597283464566929
 31
0.0
 11
0.0020314960629921
 21
0.4595748031496063
 31
0.0
 11
0.0028031496062992
 21
0.4593976377952756
 31
0.0
 11
0.0035708661417323
 21
0.4592125984251969
 31
0.0
 11
0.0043267716535433
 21
0.4590157480314961
 31
0.0
 11
0.0050787401574803
 21
0.4588070866141732
 31
0.0
 11
0.0058149606299213
 21
0.4585787401574803
 31
0.0
 11
0.0065472440944882
 21
0.4583464566929134
 31
0.0
 11
0.0072677165354331
 21
0.4580944881889764
 31
0.0
 11
0.0079842519685039
 21
0.4578385826771654
 31
0.0
 11
0.0086850393700787
 21
0.4575551181102363
 31
0.0
 11
0.0093818897637795
 21
0.457263779527559
 31
0.0
 11
0.0100669291338583
 21
0.4569606299212599
 31
0.0
 11
0.010748031496063
 21
0.4566456692913386
 31
0.0
 11
0.0114133858267717
 21
0.4563110236220472
 31
0.0
 11
0.0120787401574803
 21
0.4559724409448819
 31
0.0
 11
0.0127322834645669
 21
0.4556141732283465
 31
0.0
 11
0.0133779527559055
 21
0.455248031496063
 31
0.0
 11
0.0142283464566929
 21
0.4547204724409449
 31
0.0
 11
0.0150629921259843
 21
0.4541771653543307
 31
0.0
 11
0.0158661417322835
 21
0.4536102362204724
 31
0.0
 11
0.0166574803149606
 21
0.4530236220472441
 31
0.0
 11
0.0174173228346457
 21
0.4524094488188977
 31
0.0
 11
0.0181614173228346
 21
0.4517834645669291
 31
0.0
 11
0.0188818897637795
 21
0.4511338582677165
 31
0.0
 11
0.0195787401574803
 21
0.4504645669291338
 31
0.0
 11
0.020251968503937
 21
0.4497677165354331
 31
0.0
 11
0.0209015748031496
 21
0.4490511811023622
 31
0.0
 11
0.0215275590551181
 21
0.4483110236220472
 31
0.0
 11
0.0221338582677165
 21
0.4475551181102362
 31
0.0
 11
0.0227125984251969
 21
0.4467716535433071
 31
0.0
 11
0.0232795275590551
 21
0.4459685039370079
 31
0.0
 11
0.0238188976377953
 21
0.4451417322834645
 31
0.0
 11
0.0243385826771654
 21
0.4442992125984252
 31
0.0
 11
0.0248228346456693
 21
0.4434370078740157
 31
0.0
 11
0.0252795275590551
 21
0.4425708661417323
 31
0.0
 11
0.0257047244094488
 21
0.4416968503937008
 31
0.0
 11
0.0261023622047244
 21
0.4408228346456693
 31
0.0
 11
0.0264606299212598
 21
0.4399370078740157
 31
0.0
 11
0.0267913385826772
 21
0.4390472440944882
 31
0.0
 11
0.0270905511811024
 21
0.4381496062992126
 31
0.0
 11
0.0273622047244095
 21
0.437251968503937
 31
0.0
 11
0.0275905511811024
 21
0.4363346456692914
 31
0.0
 11
0.0277952755905512
 21
0.4354212598425197
 31
0.0
 11
0.0279645669291339
 21
0.4345
 31
0.0
 11
0.0281102362204724
 21
0.4335748031496063
 31
0.0
 11
0.0282165354330709
 21
0.4326338582677166
 31
0.0
 11
0.0282992125984252
 21
0.4316968503937008
 31
0.0
 11
0.0283464566929134
 21
0.430751968503937
 31
0.0
 11
0.0283661417322835
 21
0.4298031496062992
 31
0.0
 11
0.0283307086614173
 21
0.4283976377952756
 31
0.0
 11
0.0282362204724409
 21
0.4270157480314961
 31
0.0
 11
0.0280787401574803
 21
0.4256574803149607
 31
0.0
 11
0.0278622047244094
 21
0.4243267716535433
 31
0.0
 11
0.0275748031496063
 21
0.4230157480314961
 31
0.0
 11
0.0272322834645669
 21
0.421740157480315
 31
0.0
 11
0.0268267716535433
 21
0.4204803149606299
 31
0.0
 11
0.0263622047244094
 21
0.419251968503937
 31
0.0
 11
0.0258267716535433
 21
0.4180393700787402
 31
0.0
 11
0.0252362204724409
 21
0.4168582677165355
 31
0.0
 11
0.0245787401574803
 21
0.4157007874015748
 31
0.0
 11
0.0238622047244095
 21
0.4145669291338583
 31
0.0
 11
0.0230787401574803
 21
0.4134566929133858
 31
0.0
 11
0.022240157480315
 21
0.4123779527559055
 31
0.0
 11
0.0213346456692913
 21
0.4113149606299212
 31
0.0
 11
0.0203700787401575
 21
0.4102874015748032
 31
0.0
 11
0.0193425196850394
 21
0.4092874015748031
 31
0.0
 11
0.0182913385826772
 21
0.4083464566929134
 31
0.0
 11
0.0172086614173228
 21
0.4074645669291339
 31
0.0
 11
0.0161023622047244
 21
0.4066456692913386
 31
0.0
 11
0.0149527559055118
 21
0.4058818897637795
 31
0.0
 11
0.0137795275590551
 21
0.4051771653543307
 31
0.0
 11
0.0125748031496063
 21
0.4045314960629921
 31
0.0
 11
0.0113425196850394
 21
0.4039488188976378
 31
0.0
 11
0.0100708661417323
 21
0.4034133858267717
 31
0.0
 11
0.0087716535433071
 21
0.4029448818897638
 31
0.0
 11
0.0074370078740157
 21
0.4025314960629921
 31
0.0
 11
0.0060787401574803
 21
0.4021811023622047
 31
0.0
 11
0.0046811023622047
 21
0.4018818897637795
 31
0.0
 11
0.003259842519685
 21
0.4016496062992126
 31
0.0
 11
0.0017992125984252
 21
0.4014685039370079
 31
0.0
  0
LINE
  5
97
100
AcDbEntity
  8
0
 62
     0
100
AcDbLine
 10
0.001799
 20
0.401469
 30
0.0
 11
0.000319
 21
0.401354
 31
0.0
  0
LINE
  5
98
100
AcDbEntity
  8
0
 62
     0
100
AcDbLine
 10
0.000319
 20
0.401354
 30
0.0
 11
0.028366
 21
0.363177
 31
0.0
  0
LINE
  5
99
100
AcDbEntity
  8
0
 62
     0
100
AcDbLine
 10
0.028366
 20
0.363177
 30
0.0
 11
0.014819
 21
0.363177
 31
0.0
  0
LINE
  5
9A
100
AcDbEntity
  8
0
 62
     0
100
AcDbLine
 10
0.014819
 20
0.363177
 30
0.0
 11
-0.01963
 21
0.410287
 31
0.0
  0
LINE
  5
9B
100
AcDbEntity
  8
0
 62
     0
100
AcDbLine
 10
-0.01963
 20
0.410287
 30
0.0
 11
-0.008634
 21
0.410287
 31
0.0
  0
SPLINE
  5
9C
100
AcDbEntity
  8
0
 62
     0
100
AcDbSpline
210
0.0
220
0.0
230
1.0
 70
     0
 71
     3
 72
     0
 73
     0
 74
    96
 44
0.0000000001
 11
-0.0086338582677165
 21
0.4102874015748032
 31
0.0
 11
-0.0072677165354331
 21
0.4103031496062992
 31
0.0
 11
-0.0059370078740157
 21
0.4103700787401575
 31
0.0
 11
-0.0046377952755906
 21
0.4104685039370079
 31
0.0
 11
-0.0033779527559055
 21
0.4106220472440945
 31
0.0
 11
-0.0021456692913386
 21
0.4108110236220472
 31
0.0
 11
-0.0009488188976378
 21
0.4110472440944882
 31
0.0
 11
0.0002125984251969
 21
0.4113188976377953
 31
0.0
 11
0.0013464566929134
 21
0.4116417322834646
 31
0.0
 11
0.0024409448818898
 21
0.411996062992126
 31
0.0
 11
0.003511811023622
 21
0.4124015748031496
 31
0.0
 11
0.0045472440944882
 21
0.4128425196850394
 31
0.0
 11
0.0055590551181102
 21
0.4133346456692914
 31
0.0
 11
0.0065314960629921
 21
0.4138622047244094
 31
0.0
 11
0.0074763779527559
 21
0.4144409448818898
 31
0.0
 11
0.0083858267716535
 21
0.4150551181102362
 31
0.0
 11
0.0092677165354331
 21
0.4157165354330709
 31
0.0
 11
0.0100984251968504
 21
0.4164015748031496
 31
0.0
 11
0.0108779527559055
 21
0.4171181102362205
 31
0.0
 11
0.0116023622047244
 21
0.4178543307086614
 31
0.0
 11
0.0122834645669291
 21
0.4186220472440945
 31
0.0
 11
0.0129015748031496
 21
0.4194094488188976
 31
0.0
 11
0.0134685039370079
 21
0.4202244094488189
 31
0.0
 11
0.0139803149606299
 21
0.4210629921259843
 31
0.0
 11
0.0144448818897638
 21
0.4219251968503937
 31
0.0
 11
0.0148464566929134
 21
0.4228110236220473
 31
0.0
 11
0.0151968503937008
 21
0.4237204724409449
 31
0.0
 11
0.015492125984252
 21
0.4246535433070866
 31
0.0
 11
0.015740157480315
 21
0.4256141732283464
 31
0.0
 11
0.0159251968503937
 21
0.4265944881889764
 31
0.0
 11
0.0160629921259843
 21
0.4275984251968504
 31
0.0
 11
0.0161456692913386
 21
0.4286259842519685
 31
0.0
 11
0.0161771653543307
 21
0.4296889763779528
 31
0.0
 11
0.0161653543307087
 21
0.4303228346456693
 31
0.0
 11
0.0161417322834646
 21
0.4309566929133858
 31
0.0
 11
0.0160944881889764
 21
0.4315826771653543
 31
0.0
 11
0.0160393700787402
 21
0.4322047244094488
 31
0.0
 11
0.0159645669291339
 21
0.4328110236220473
 31
0.0
 11
0.0158740157480315
 21
0.4334173228346457
 31
0.0
 11
0.0157637795275591
 21
0.4340118110236221
 31
0.0
 11
0.0156456692913386
 21
0.4346102362204725
 31
0.0
 11
0.0155
 21
0.4351889763779527
 31
0.0
 11
0.0153464566929134
 21
0.4357677165354331
 31
0.0
 11
0.0151692913385827
 21
0.4363346456692914
 31
0.0
 11
0.0149803149606299
 21
0.4369015748031496
 31
0.0
 11
0.0147716535433071
 21
0.4374488188976378
 31
0.0
 11
0.0145511811023622
 21
0.438
 31
0.0
 11
0.0143110236220472
 21
0.4385393700787402
 31
0.0
 11
0.0140551181102362
 21
0.4390787401574803
 31
0.0
 11
0.0137834645669291
 21
0.4395944881889764
 31
0.0
 11
0.0135
 21
0.4401102362204725
 31
0.0
 11
0.0131929133858268
 21
0.4406141732283465
 31
0.0
 11
0.0128779527559055
 21
0.4411181102362205
 31
0.0
 11
0.0125433070866142
 21
0.4416023622047244
 31
0.0
 11
0.0121929133858268
 21
0.4420866141732284
 31
0.0
 11
0.0118228346456693
 21
0.4425590551181102
 31
0.0
 11
0.0114448818897638
 21
0.4430275590551181
 31
0.0
 11
0.0110393700787402
 21
0.4434803149606299
 31
0.0
 11
0.0106259842519685
 21
0.4439291338582677
 31
0.0
 11
0.0101929133858268
 21
0.4443661417322835
 31
0.0
 11
0.009748031496063
 21
0.4448031496062992
 31
0.0
 11
0.0092834645669291
 21
0.4452204724409449
 31
0.0
 11
0.0088031496062992
 21
0.4456417322834645
 31
0.0
 11
0.0083070866141732
 21
0.4460472440944882
 31
0.0
 11
0.0077992125984252
 21
0.4464527559055118
 31
0.0
 11
0.0073582677165354
 21
0.4467677165354331
 31
0.0
 11
0.0069173228346457
 21
0.4470787401574803
 31
0.0
 11
0.0064606299212598
 21
0.4473700787401575
 31
0.0
 11
0.005996062992126
 21
0.4476574803149606
 31
0.0
 11
0.0055157480314961
 21
0.4479251968503937
 31
0.0
 11
0.0050275590551181
 21
0.4481889763779527
 31
0.0
 11
0.0045236220472441
 21
0.4484409448818898
 31
0.0
 11
0.0040196850393701
 21
0.4486850393700788
 31
0.0
 11
0.003492125984252
 21
0.4489055118110236
 31
0.0
 11
0.0029645669291339
 21
0.4491220472440945
 31
0.0
 11
0.0024173228346457
 21
0.4493267716535433
 31
0.0
 11
0.0018700787401575
 21
0.4495236220472441
 31
0.0
 11
0.0013031496062992
 21
0.4497047244094488
 31
0.0
 11
0.0007322834645669
 21
0.4498779527559055
 31
0.0
 11
0.0001456692913386
 21
0.4500354330708661
 31
0.0
 11
-0.0004448818897638
 21
0.4501850393700788
 31
0.0
 11
-0.0010748031496063
 21
0.4503110236220472
 31
0.0
 11
-0.0017677165354331
 21
0.4504370078740158
 31
0.0
 11
-0.0025157480314961
 21
0.4505472440944882
 31
0.0
 11
-0.0033267716535433
 21
0.4506614173228347
 31
0.0
 11
-0.0041929133858268
 21
0.4507559055118111
 31
0.0
 11
-0.0051220472440945
 21
0.4508464566929134
 31
0.0
 11
-0.0061062992125984
 21
0.4509251968503937
 31
0.0
 11
-0.0071535433070866
 21
0.451003937007874
 31
0.0
 11
-0.008255905511811
 21
0.4510629921259843
 31
0.0
 11
-0.0094212598425197
 21
0.4511220472440945
 31
0.0
 11
-0.0106417322834646
 21
0.4511692913385827
 31
0.0
 11
-0.0119251968503937
 21
0.4512125984251968
 31
0.0
 11
-0.0132637795275591
 21
0.451240157480315
 31
0.0
 11
-0.0146653543307087
 21
0.451263779527559
 31
0.0
 11
-0.0161220472440945
 21
0.4512755905511811
 31
0.0
  0
LINE
  5
9D
100
AcDbEntity
  8
0
 62
     0
100
AcDbLine
 10
-0.016122
 20
0.451276
 30
0.0
 11
-0.017642
 21
0.451283
 31
0.0
  0
LINE
  5
9E
100
AcDbEntity
  8
0
 62
     0
100
AcDbLine
 10
-0.017642
 20
0.451283
 30
0.0
 11
-0.034457
 21
0.451283
 31
0.0
  0
LINE
  5
9F
100
AcDbEntity
  8
0
 62
     0
100
AcDbLine
 10
0.101925
 20
0.225205
 30
0.0
 11
0.085709
 21
0.225205
 31
0.0
  0
LINE
  5
A0
100
AcDbEntity
  8
0
 62
     0
100
AcDbLine
 10
0.085709
 20
0.225205
 30
0.0
 11
0.085709
 21
0.44663
 31
0.0
  0
LINE
  5
A1
100
AcDbEntity
  8
0
 62
     0
100
AcDbLine
 10
0.085709
 20
0.44663
 30
0.0
 11
0.038319
 21
0.44663
 31
0.0
  0
LINE
  5
A2
100
AcDbEntity
  8
0
 62
     0
100
AcDbLine
 10
0.038319
 20
0.44663
 30
0.0
 11
0.038319
 21
0.462205
 31
0.0
  0
LINE
  5
A3
100
AcDbEntity
  8
0
 62
     0
100
AcDbLine
 10
0.038319
 20
0.462205
 30
0.0
 11
0.15124
 21
0.462205
 31
0.0
  0
LINE
  5
A4
100
AcDbEntity
  8
0
 62
     0
100
AcDbLine
 10
0.15124
 20
0.462205
 30
0.0
 11
0.15124
 21
0.44663
 31
0.0
  0
LINE
  5
A5
100
AcDbEntity
  8
0
 62
     0
100
AcDbLine
 10
0.15124
 20
0.44663
 30
0.0
 11
0.101925
 21
0.44663
 31
0.0
  0
LINE
  5
A6
100
AcDbEntity
  8
0
 62
     0
100
AcDbLine
 10
0.101925
 20
0.44663
 30
0.0
 11
0.101925
 21
0.225205
 31
0.0
  0
LINE
  5
A7
100
AcDbEntity
  8
0
 62
     0
100
AcDbLine
 10
0.002358
 20
0.298441
 30
0.0
 11
0.068768
 21
0.298441
 31
0.0
  0
LINE
  5
A8
100
AcDbEntity
  8
0
 62
     0
100
AcDbLine
 10
0.068768
 20
0.298441
 30
0.0
 11
0.068768
 21
0.285307
 31
0.0
  0
LINE
  5
A9
100
AcDbEntity
  8
0
 62
     0
100
AcDbLine
 10
0.068768
 20
0.285307
 30
0.0
 11
0.002358
 21
0.285307
 31
0.0
  0
LINE
  5
AA
100
AcDbEntity
  8
0
 62
     0
100
AcDbLine
 10
0.002358
 20
0.285307
 30
0.0
 11
0.002358
 21
0.238059
 31
0.0
  0
LINE
  5
AB
100
AcDbEntity
  8
0
 62
     0
100
AcDbLine
 10
0.002358
 20
0.238059
 30
0.0
 11
0.068768
 21
0.238059
 31
0.0
  0
LINE
  5
AC
100
AcDbEntity
  8
0
 62
     0
100
AcDbLine
 10
0.068768
 20
0.238059
 30
0.0
 11
0.068768
 21
0.225205
 31
0.0
  0
LINE
  5
AD
100
AcDbEntity
  8
0
 62
     0
100
AcDbLine
 10
0.068768
 20
0.225205
 30
0.0
 11
-0.013272
 21
0.225205
 31
0.0
  0
LINE
  5
AE
100
AcDbEntity
  8
0
 62
     0
100
AcDbLine
 10
-0.013272
 20
0.225205
 30
0.0
 11
-0.013272
 21
0.357984
 31
0.0
  0
LINE
  5
AF
100
AcDbEntity
  8
0
 62
     0
100
AcDbLine
 10
-0.013272
 20
0.357984
 30
0.0
 11
0.068768
 21
0.357984
 31
0.0
  0
LINE
  5
B0
100
AcDbEntity
  8
0
 62
     0
100
AcDbLine
 10
0.068768
 20
0.357984
 30
0.0
 11
0.068768
 21
0.344941
 31
0.0
  0
LINE
  5
B1
100
AcDbEntity
  8
0
 62
     0
100
AcDbLine
 10
0.068768
 20
0.344941
 30
0.0
 11
0.002358
 21
0.344941
 31
0.0
  0
LINE
  5
B2
100
AcDbEntity
  8
0
 62
     0
100
AcDbLine
 10
0.002358
 20
0.344941
 30
0.0
 11
0.002358
 21
0.298441
 31
0.0
  0
LINE
  5
B3
100
AcDbEntity
  8
0
 62
     0
100
AcDbLine
 10
-0.049118
 20
0.241079
 30
0.0
 11
-0.051028
 21
0.357984
 31
0.0
  0
LINE
  5
B4
100
AcDbEntity
  8
0
 62
     0
100
AcDbLine
 10
-0.051028
 20
0.357984
 30
0.0
 11
-0.03511
 21
0.357984
 31
0.0
  0
LINE
  5
B5
100
AcDbEntity
  8
0
 62
     0
100
AcDbLine
 10
-0.03511
 20
0.357984
 30
0.0
 11
-0.03511
 21
0.225205
 31
0.0
  0
LINE
  5
B6
100
AcDbEntity
  8
0
 62
     0
100
AcDbLine
 10
-0.03511
 20
0.225205
 30
0.0
 11
-0.054398
 21
0.225205
 31
0.0
  0
LINE
  5
B7
100
AcDbEntity
  8
0
 62
     0
100
AcDbLine
 10
-0.054398
 20
0.225205
 30
0.0
 11
-0.143988
 21
0.342295
 31
0.0
  0
LINE
  5
B8
100
AcDbEntity
  8
0
 62
     0
100
AcDbLine
 10
-0.143988
 20
0.342295
 30
0.0
 11
-0.142189
 21
0.225205
 31
0.0
  0
LINE
  5
B9
100
AcDbEntity
  8
0
 62
     0
100
AcDbLine
 10
-0.142189
 20
0.225205
 30
0.0
 11
-0.158
 21
0.225205
 31
0.0
  0
LINE
  5
BA
100
AcDbEntity
  8
0
 62
     0
100
AcDbLine
 10
-0.158
 20
0.225205
 30
0.0
 11
-0.158
 21
0.357984
 31
0.0
  0
LINE
  5
BB
100
AcDbEntity
  8
0
 62
     0
100
AcDbLine
 10
-0.158
 20
0.357984
 30
0.0
 11
-0.138709
 21
0.357984
 31
0.0
  0
LINE
  5
BC
100
AcDbEntity
  8
0
 62
     0
100
AcDbLine
 10
-0.138709
 20
0.357984
 30
0.0
 11
-0.049118
 21
0.241079
 31
0.0
  0
ENDSEC
  0
SECTION
  2
OBJECTS
  0
DICTIONARY
  5
19
100
AcDbDictionary
  3
ACAD_GROUP
350
1A
  3
ACAD_MLINESTYLE
350
1B
  0
DICTIONARY
  5
1A
102
{ACAD_REACTORS
330
19
102
}
100
AcDbDictionary
  0
DICTIONARY
  5
1B
102
{ACAD_REACTORS
330
19
102
}
100
AcDbDictionary
  3
STANDARD
350
1C
  0
MLINESTYLE
  5
1C
102
{ACAD_REACTORS
330
1B
102
}
100
AcDbMlineStyle
  2
STANDARD
 70
     0
  3

 62
     0
 51
90.0
 52
90.0
 71
     2
 49
0.5
 62
   256
  6
BYLAYER
 49
-0.5
 62
   256
  6
BYLAYER
  0
DICTIONARY
  5
22
102
{ACAD_REACTORS
330
19
102
}
100
AcDbDictionary
  0
ENDSEC
  0
EOF
